HIERARCHY
ROOT Hips
{
	OFFSET 0.000000 0.000000 0.000000
	CHANNELS 6 Xposition Yposition Zposition Zrotation Yrotation Xrotation 
	JOINT LHipJoint
	{
		OFFSET 0.000000 0.000000 0.000000
		CHANNELS 3 Zrotation Yrotation Xrotation
		JOINT LeftUpLeg
		{
			OFFSET 1.363060 -1.794630 0.839290
			CHANNELS 3 Zrotation Yrotation Xrotation
			JOINT LeftLeg
			{
				OFFSET 2.448110 -6.726130 0.000000
				CHANNELS 3 Zrotation Yrotation Xrotation
				JOINT LeftFoot
				{
					OFFSET 2.562200 -7.039590 0.000000
					CHANNELS 3 Zrotation Yrotation Xrotation
					JOINT LeftToeBase
					{
						OFFSET 0.157640 -0.433110 2.322550
						CHANNELS 3 Zrotation Yrotation Xrotation
						End Site
						{
							OFFSET 0.000000 0.000000 0.000000
						}
					}
				}
			}
		}
	}
	JOINT RHipJoint
	{
		OFFSET 0.000000 0.000000 0.000000
		CHANNELS 3 Zrotation Yrotation Xrotation
		JOINT RightUpLeg
		{
			OFFSET -1.305520 -1.794630 0.839290
			CHANNELS 3 Zrotation Yrotation Xrotation
			JOINT RightLeg
			{
				OFFSET -2.542530 -6.985550 0.000000
				CHANNELS 3 Zrotation Yrotation Xrotation
				JOINT RightFoot
				{
					OFFSET -2.568260 -7.056230 0.000000
					CHANNELS 3 Zrotation Yrotation Xrotation
					JOINT RightToeBase
					{
						OFFSET -0.164730 -0.452590 2.363150
						CHANNELS 3 Zrotation Yrotation Xrotation
						End Site
						{
							OFFSET 0.000000 0.000000 0.000000
						}
					}
				}
			}
		}
	}
	JOINT LowerBack
	{
		OFFSET 0.000000 0.000000 0.000000
		CHANNELS 3 Zrotation Yrotation Xrotation
		JOINT Spine
		{
			OFFSET 0.028270 2.035590 -0.193380
			CHANNELS 3 Zrotation Yrotation Xrotation
			JOINT Spine1
			{
				OFFSET 0.056720 2.048850 -0.042750
				CHANNELS 3 Zrotation Yrotation Xrotation
				JOINT Neck
				{
					OFFSET 0.000000 0.000000 0.000000
					CHANNELS 3 Zrotation Yrotation Xrotation
					JOINT Neck1
					{
						OFFSET -0.054170 1.746240 0.172020
						CHANNELS 3 Zrotation Yrotation Xrotation
						JOINT Head
						{
							OFFSET 0.104070 1.761360 -0.123970
							CHANNELS 3 Zrotation Yrotation Xrotation
							End Site
							{
								OFFSET 0.000000 0.000000 0.000000
							}
						}
					}
				}
				JOINT LeftShoulder
				{
					OFFSET 0.000000 0.000000 0.000000
					CHANNELS 3 Zrotation Yrotation Xrotation
					JOINT LeftArm
					{
						OFFSET 3.362410 1.200890 -0.311210
						CHANNELS 3 Zrotation Yrotation Xrotation
						JOINT LeftForeArm
						{
							OFFSET 4.983000 -0.000000 -0.000000
							CHANNELS 3 Zrotation Yrotation Xrotation
							JOINT LeftHand
							{
								OFFSET 3.483560 -0.000000 -0.000000
								CHANNELS 3 Zrotation Yrotation Xrotation
								JOINT LeftFingerBase
								{
									OFFSET 0.000000 0.000000 0.000000
									CHANNELS 3 Zrotation Yrotation Xrotation
									JOINT LeftHandIndex1
									{
										OFFSET 0.715260 -0.000000 -0.000000
										CHANNELS 3 Zrotation Yrotation Xrotation
										End Site
										{
											OFFSET 0.000000 0.000000 0.000000
										}
									}
								}
								JOINT LThumb
								{
									OFFSET 0.000000 0.000000 0.000000
									CHANNELS 3 Zrotation Yrotation Xrotation
									End Site
									{
										OFFSET 0.000000 0.000000 0.000000
									}
								}
							}
						}
					}
				}
				JOINT RightShoulder
				{
					OFFSET 0.000000 0.000000 0.000000
					CHANNELS 3 Zrotation Yrotation Xrotation
					JOINT RightArm
					{
						OFFSET -3.136600 1.374050 -0.404650
						CHANNELS 3 Zrotation Yrotation Xrotation
						JOINT RightForeArm
						{
							OFFSET -5.241900 -0.000000 -0.000000
							CHANNELS 3 Zrotation Yrotation Xrotation
							JOINT RightHand
							{
								OFFSET -3.444170 -0.000000 -0.000000
								CHANNELS 3 Zrotation Yrotation Xrotation
								JOINT RightFingerBase
								{
									OFFSET 0.000000 0.000000 0.000000
									CHANNELS 3 Zrotation Yrotation Xrotation
									JOINT RightHandIndex1
									{
										OFFSET -0.622530 -0.000000 -0.000000
										CHANNELS 3 Zrotation Yrotation Xrotation
										End Site
										{
											OFFSET 0.000000 0.000000 0.000000
										}
									}
								}
								JOINT RThumb
								{
									OFFSET 0.000000 0.000000 0.000000
									CHANNELS 3 Zrotation Yrotation Xrotation
									End Site
									{
										OFFSET 0.000000 0.000000 0.000000
									}
								}
							}
						}
					}
				}
			}
		}
	}
}
MOTION
Frames: 4
Frame Time: 0.008333
8.727098 17.345739 -16.436378 -2.142929 -13.865775 9.095726 -0.045272 -2.775410 -4.507957 -10.536597 -1.409799 -36.622883 -0.962619 12.195075 26.823562 -1.535130 10.122419 15.119207 0.138800 -2.401300 -6.616000 0.789109 -2.280455 4.175758 15.744558 7.885943 3.095710 -1.578458 -10.475590 32.920673 -1.958447 -8.161440 42.071661 -0.056300 -1.531500 4.212400 1.514084 7.006445 -1.104663 0.516436 8.829166 -3.850213 -2.726634 5.079610 -0.726703 -2.901127 0.474087 -13.005866 4.283072 0.742067 9.749437 0.479100 0.485900 5.684500 2.505353 -7.328247 0.308509 -92.743232 26.672215 -19.789908 0.853638 -4.540864 -0.240342 -0.111492 0.693710 25.988768 9.355953 -5.084989 -0.972100 -7.125000 0.000000 0.000000 -12.540900 24.242000 6.434700 -3.217414 9.055765 0.984374 73.423943 18.192461 22.289214 -37.495746 41.270187 -18.874632 1.845139 1.895176 -21.978913 -22.678912 -33.873124 14.788800 7.125000 0.000000 0.000000 10.565500 -66.735400 -5.559400
8.727266 17.356987 -16.298826 -1.821401 -13.778770 8.905312 -0.052162 -2.735460 -4.394972 -11.014929 -1.489143 -36.494515 -0.875438 12.349488 27.421099 -1.410350 9.562518 14.678049 0.114651 -2.170520 -5.977533 0.735664 -2.245447 4.010996 15.550825 7.933478 2.685795 -2.209813 -11.008004 34.328299 -1.722089 -9.957205 42.236077 -0.098224 -1.971750 5.429038 1.145844 6.916054 -0.957511 0.473386 8.734401 -3.843521 -2.795824 5.018947 -0.749047 -2.825207 0.485264 -13.058456 4.334544 0.737804 9.725484 0.497971 0.490630 5.692367 2.466842 -7.359751 0.313173 -92.451046 26.243432 -19.881752 0.821151 -4.468800 -0.239255 -0.099768 0.711484 26.113086 9.405803 -5.237590 -1.006904 -7.125000 0.000000 0.000000 -12.490711 24.069823 6.458500 -3.257229 9.063454 0.972278 73.887409 17.707898 22.334702 -37.728606 41.474613 -19.032600 1.827928 1.868267 -22.002004 -22.561805 -33.776157 14.659842 7.125000 0.000000 0.000000 10.652634 -66.588965 -5.569657
8.727434 17.368234 -16.161275 -1.499873 -13.691765 8.714897 -0.059052 -2.695510 -4.281987 -11.493260 -1.568486 -36.366148 -0.788257 12.503901 28.018637 -1.285570 9.002617 14.236891 0.090503 -1.939739 -5.339065 0.682218 -2.210439 3.846234 15.357092 7.981013 2.275880 -2.841168 -11.540419 35.735924 -1.485730 -11.752970 42.400492 -0.140148 -2.412000 6.645676 0.777604 6.825663 -0.810359 0.430337 8.639636 -3.836828 -2.865014 4.958284 -0.771390 -2.749288 0.496441 -13.111046 4.386016 0.733542 9.701531 0.516841 0.495360 5.700234 2.428332 -7.391254 0.317837 -92.158859 25.814649 -19.973596 0.788665 -4.396736 -0.238168 -0.088045 0.729258 26.237404 9.455653 -5.390191 -1.041708 -7.125000 0.000000 0.000000 -12.440522 23.897647 6.482300 -3.297044 9.071143 0.960183 74.350874 17.223335 22.380191 -37.961465 41.679038 -19.190569 1.810718 1.841357 -22.025096 -22.444698 -33.679190 14.530884 7.125000 0.000000 0.000000 10.739768 -66.442531 -5.579914
8.726603 17.379594 -16.025610 -1.381964 -13.744747 8.505471 -0.070257 -2.652028 -4.157781 -11.747676 -1.521510 -36.093520 -0.706039 12.596848 28.488940 -1.150508 8.431598 13.827601 0.052382 -1.351552 -3.718482 0.620132 -2.148615 3.657997 15.429346 8.150817 1.916533 -3.486198 -12.057169 37.217849 -1.187174 -13.478116 42.174379 -0.143166 -2.438214 6.718356 0.634091 6.830032 -0.578014 0.399483 8.663509 -3.827288 -2.942707 4.953402 -0.848479 -2.719841 0.488388 -13.016926 4.373934 0.711603 9.619327 0.512063 0.483057 5.638091 2.397309 -7.432932 0.329226 -91.885385 25.381521 -19.970730 0.752002 -4.320435 -0.235227 -0.130277 0.738260 26.341478 9.777990 -4.944585 -0.996084 -7.125000 0.000000 0.000000 -12.211012 24.345341 6.230306 -3.327023 9.074182 0.952447 74.801441 16.681181 22.313864 -38.215180 41.893613 -19.376980 1.796728 1.814067 -22.074221 -22.492272 -33.604292 14.514445 7.125000 0.000000 0.000000 10.628227 -66.358848 -5.501251
